<mxfile host="app.diagrams.net" agent="Mozilla/5.0 (X11; Linux x86_64) AppleWebKit/537.36 (KHTML, like Gecko) Chrome/122.0.0.0 Safari/537.36" version="24.8.4">
  <diagram name="第 1 页" id="-34MsAzQcpD7_Uyt-niJ">
    <mxGraphModel dx="1960" dy="1059" grid="1" gridSize="10" guides="1" tooltips="1" connect="1" arrows="1" fold="1" page="1" pageScale="1" pageWidth="827" pageHeight="1169" math="0" shadow="0">
      <root>
        <mxCell id="0" />
        <mxCell id="1" parent="0" />
        <mxCell id="CMEZGBUHvDBOm816A8C0-10" value="" style="edgeStyle=orthogonalEdgeStyle;rounded=0;orthogonalLoop=1;jettySize=auto;html=1;strokeWidth=2;" edge="1" parent="1" source="CMEZGBUHvDBOm816A8C0-1" target="CMEZGBUHvDBOm816A8C0-9">
          <mxGeometry relative="1" as="geometry" />
        </mxCell>
        <mxCell id="CMEZGBUHvDBOm816A8C0-1" value="&lt;h2 style=&quot;font-size: 20px;&quot;&gt;&lt;span style=&quot;font-weight: normal;&quot;&gt;开始&lt;/span&gt;&lt;/h2&gt;" style="rounded=1;whiteSpace=wrap;html=1;strokeWidth=2;" vertex="1" parent="1">
          <mxGeometry x="90" y="90" width="120" height="60" as="geometry" />
        </mxCell>
        <mxCell id="CMEZGBUHvDBOm816A8C0-12" value="" style="edgeStyle=orthogonalEdgeStyle;rounded=0;orthogonalLoop=1;jettySize=auto;html=1;" edge="1" parent="1" source="CMEZGBUHvDBOm816A8C0-9" target="CMEZGBUHvDBOm816A8C0-11">
          <mxGeometry relative="1" as="geometry" />
        </mxCell>
        <mxCell id="CMEZGBUHvDBOm816A8C0-9" value="&lt;h2 style=&quot;forced-color-adjust: none; color: rgb(0, 0, 0); font-family: Helvetica; font-style: normal; font-variant-ligatures: normal; font-variant-caps: normal; letter-spacing: normal; orphans: 2; text-align: center; text-indent: 0px; text-transform: none; widows: 2; word-spacing: 0px; -webkit-text-stroke-width: 0px; white-space: normal; background-color: rgb(251, 251, 251); text-decoration-thickness: initial; text-decoration-style: initial; text-decoration-color: initial; font-size: 20px;&quot;&gt;&lt;span style=&quot;forced-color-adjust: none; font-weight: normal;&quot;&gt;设置采集参数及初始化&lt;/span&gt;&lt;/h2&gt;" style="rounded=0;whiteSpace=wrap;html=1;strokeWidth=2;" vertex="1" parent="1">
          <mxGeometry x="250" y="90" width="230" height="60" as="geometry" />
        </mxCell>
        <mxCell id="CMEZGBUHvDBOm816A8C0-14" value="" style="edgeStyle=orthogonalEdgeStyle;rounded=0;orthogonalLoop=1;jettySize=auto;html=1;" edge="1" parent="1" source="CMEZGBUHvDBOm816A8C0-11" target="CMEZGBUHvDBOm816A8C0-13">
          <mxGeometry relative="1" as="geometry" />
        </mxCell>
        <mxCell id="CMEZGBUHvDBOm816A8C0-11" value="&lt;h2 style=&quot;forced-color-adjust: none; color: rgb(0, 0, 0); font-family: Helvetica; font-style: normal; font-variant-ligatures: normal; font-variant-caps: normal; letter-spacing: normal; orphans: 2; text-align: center; text-indent: 0px; text-transform: none; widows: 2; word-spacing: 0px; -webkit-text-stroke-width: 0px; white-space: normal; background-color: rgb(251, 251, 251); text-decoration-thickness: initial; text-decoration-style: initial; text-decoration-color: initial; font-size: 20px;&quot;&gt;&lt;span style=&quot;forced-color-adjust: none; font-weight: normal;&quot;&gt;获取网络设备接口&lt;/span&gt;&lt;/h2&gt;" style="rounded=0;whiteSpace=wrap;html=1;strokeWidth=2;" vertex="1" parent="1">
          <mxGeometry x="520" y="90" width="180" height="60" as="geometry" />
        </mxCell>
        <mxCell id="CMEZGBUHvDBOm816A8C0-16" value="" style="edgeStyle=orthogonalEdgeStyle;rounded=0;orthogonalLoop=1;jettySize=auto;html=1;entryX=0.5;entryY=0;entryDx=0;entryDy=0;" edge="1" parent="1" source="CMEZGBUHvDBOm816A8C0-13" target="CMEZGBUHvDBOm816A8C0-17">
          <mxGeometry relative="1" as="geometry">
            <mxPoint x="810" y="210" as="targetPoint" />
          </mxGeometry>
        </mxCell>
        <mxCell id="CMEZGBUHvDBOm816A8C0-13" value="&lt;h2 style=&quot;forced-color-adjust: none; color: rgb(0, 0, 0); font-family: Helvetica; font-style: normal; font-variant-ligatures: normal; font-variant-caps: normal; letter-spacing: normal; orphans: 2; text-align: center; text-indent: 0px; text-transform: none; widows: 2; word-spacing: 0px; -webkit-text-stroke-width: 0px; white-space: normal; background-color: rgb(251, 251, 251); text-decoration-thickness: initial; text-decoration-style: initial; text-decoration-color: initial;&quot;&gt;&lt;span style=&quot;forced-color-adjust: none; font-weight: normal;&quot;&gt;&lt;font style=&quot;font-size: 20px;&quot;&gt;打开网络设备&lt;/font&gt;&lt;/span&gt;&lt;/h2&gt;" style="rounded=0;whiteSpace=wrap;html=1;strokeWidth=2;" vertex="1" parent="1">
          <mxGeometry x="740" y="90" width="140" height="60" as="geometry" />
        </mxCell>
        <mxCell id="CMEZGBUHvDBOm816A8C0-17" value="&lt;h2 style=&quot;forced-color-adjust: none; color: rgb(0, 0, 0); font-family: Helvetica; font-style: normal; font-variant-ligatures: normal; font-variant-caps: normal; letter-spacing: normal; orphans: 2; text-align: center; text-indent: 0px; text-transform: none; widows: 2; word-spacing: 0px; -webkit-text-stroke-width: 0px; white-space: normal; background-color: rgb(251, 251, 251); text-decoration-thickness: initial; text-decoration-style: initial; text-decoration-color: initial; font-size: 20px;&quot;&gt;&lt;span style=&quot;forced-color-adjust: none; font-weight: normal;&quot;&gt;设置过滤器&lt;/span&gt;&lt;/h2&gt;" style="rounded=0;whiteSpace=wrap;html=1;strokeWidth=2;" vertex="1" parent="1">
          <mxGeometry x="730" y="200" width="160" height="60" as="geometry" />
        </mxCell>
        <mxCell id="CMEZGBUHvDBOm816A8C0-26" value="" style="edgeStyle=orthogonalEdgeStyle;rounded=0;orthogonalLoop=1;jettySize=auto;html=1;exitX=0;exitY=0.5;exitDx=0;exitDy=0;" edge="1" parent="1" source="CMEZGBUHvDBOm816A8C0-17" target="CMEZGBUHvDBOm816A8C0-25">
          <mxGeometry relative="1" as="geometry">
            <mxPoint x="560" y="230" as="sourcePoint" />
          </mxGeometry>
        </mxCell>
        <mxCell id="CMEZGBUHvDBOm816A8C0-29" value="" style="edgeStyle=orthogonalEdgeStyle;rounded=0;orthogonalLoop=1;jettySize=auto;html=1;entryX=0.5;entryY=0;entryDx=0;entryDy=0;exitX=0.5;exitY=0;exitDx=0;exitDy=0;" edge="1" parent="1" source="CMEZGBUHvDBOm816A8C0-21" target="CMEZGBUHvDBOm816A8C0-25">
          <mxGeometry relative="1" as="geometry">
            <mxPoint x="700" y="330" as="targetPoint" />
            <Array as="points">
              <mxPoint x="390" y="170" />
              <mxPoint x="610" y="170" />
            </Array>
          </mxGeometry>
        </mxCell>
        <mxCell id="CMEZGBUHvDBOm816A8C0-31" value="" style="edgeStyle=orthogonalEdgeStyle;rounded=0;orthogonalLoop=1;jettySize=auto;html=1;exitX=0.5;exitY=1;exitDx=0;exitDy=0;" edge="1" parent="1" source="CMEZGBUHvDBOm816A8C0-21" target="CMEZGBUHvDBOm816A8C0-30">
          <mxGeometry relative="1" as="geometry">
            <Array as="points">
              <mxPoint x="390" y="340" />
            </Array>
          </mxGeometry>
        </mxCell>
        <mxCell id="CMEZGBUHvDBOm816A8C0-21" value="&lt;h2 style=&quot;&quot;&gt;&lt;span style=&quot;font-size: 20px; font-weight: normal;&quot;&gt;符合过滤&lt;/span&gt;&lt;span style=&quot;font-size: 20px; font-weight: 400;&quot;&gt;规则&lt;/span&gt;&lt;/h2&gt;" style="rhombus;whiteSpace=wrap;html=1;rounded=0;strokeWidth=2;" vertex="1" parent="1">
          <mxGeometry x="290" y="190" width="200" height="80" as="geometry" />
        </mxCell>
        <mxCell id="CMEZGBUHvDBOm816A8C0-27" value="" style="edgeStyle=orthogonalEdgeStyle;rounded=0;orthogonalLoop=1;jettySize=auto;html=1;" edge="1" parent="1" source="CMEZGBUHvDBOm816A8C0-25" target="CMEZGBUHvDBOm816A8C0-21">
          <mxGeometry relative="1" as="geometry" />
        </mxCell>
        <mxCell id="CMEZGBUHvDBOm816A8C0-25" value="&lt;h2 style=&quot;forced-color-adjust: none; color: rgb(0, 0, 0); font-family: Helvetica; font-style: normal; font-variant-ligatures: normal; font-variant-caps: normal; letter-spacing: normal; orphans: 2; text-align: center; text-indent: 0px; text-transform: none; widows: 2; word-spacing: 0px; -webkit-text-stroke-width: 0px; white-space: normal; background-color: rgb(251, 251, 251); text-decoration-thickness: initial; text-decoration-style: initial; text-decoration-color: initial; font-size: 20px;&quot;&gt;&lt;span style=&quot;forced-color-adjust: none; font-weight: normal;&quot;&gt;捕获数据包&lt;/span&gt;&lt;/h2&gt;" style="rounded=0;whiteSpace=wrap;html=1;strokeWidth=2;" vertex="1" parent="1">
          <mxGeometry x="530" y="200" width="160" height="60" as="geometry" />
        </mxCell>
        <mxCell id="CMEZGBUHvDBOm816A8C0-33" value="" style="edgeStyle=orthogonalEdgeStyle;rounded=0;orthogonalLoop=1;jettySize=auto;html=1;dashed=1;" edge="1" parent="1" source="CMEZGBUHvDBOm816A8C0-30" target="CMEZGBUHvDBOm816A8C0-32">
          <mxGeometry relative="1" as="geometry" />
        </mxCell>
        <mxCell id="CMEZGBUHvDBOm816A8C0-38" value="" style="edgeStyle=orthogonalEdgeStyle;rounded=0;orthogonalLoop=1;jettySize=auto;html=1;entryX=0.5;entryY=1;entryDx=0;entryDy=0;" edge="1" parent="1" source="CMEZGBUHvDBOm816A8C0-30" target="CMEZGBUHvDBOm816A8C0-25">
          <mxGeometry relative="1" as="geometry">
            <mxPoint x="550" y="330" as="targetPoint" />
          </mxGeometry>
        </mxCell>
        <mxCell id="CMEZGBUHvDBOm816A8C0-30" value="&lt;h2 style=&quot;font-size: 20px;&quot;&gt;&lt;span style=&quot;font-weight: normal;&quot;&gt;FIFO传输数据&lt;/span&gt;&lt;/h2&gt;" style="whiteSpace=wrap;html=1;rounded=0;strokeWidth=2;" vertex="1" parent="1">
          <mxGeometry x="530" y="310" width="160" height="60" as="geometry" />
        </mxCell>
        <mxCell id="CMEZGBUHvDBOm816A8C0-44" value="" style="edgeStyle=orthogonalEdgeStyle;rounded=0;orthogonalLoop=1;jettySize=auto;html=1;exitX=0.5;exitY=1;exitDx=0;exitDy=0;" edge="1" parent="1" source="CMEZGBUHvDBOm816A8C0-59" target="CMEZGBUHvDBOm816A8C0-63">
          <mxGeometry relative="1" as="geometry">
            <mxPoint x="610" y="630" as="sourcePoint" />
            <mxPoint x="610" y="710" as="targetPoint" />
          </mxGeometry>
        </mxCell>
        <mxCell id="CMEZGBUHvDBOm816A8C0-67" value="" style="edgeStyle=orthogonalEdgeStyle;rounded=0;orthogonalLoop=1;jettySize=auto;html=1;" edge="1" parent="1" source="CMEZGBUHvDBOm816A8C0-32" target="CMEZGBUHvDBOm816A8C0-59">
          <mxGeometry relative="1" as="geometry" />
        </mxCell>
        <mxCell id="CMEZGBUHvDBOm816A8C0-32" value="&lt;h2 style=&quot;font-size: 20px;&quot;&gt;&lt;span style=&quot;font-weight: normal;&quot;&gt;FIFO接收数据&lt;/span&gt;&lt;/h2&gt;" style="whiteSpace=wrap;html=1;rounded=0;strokeWidth=2;" vertex="1" parent="1">
          <mxGeometry x="530" y="450" width="160" height="60" as="geometry" />
        </mxCell>
        <mxCell id="CMEZGBUHvDBOm816A8C0-34" value="" style="endArrow=none;dashed=1;html=1;dashPattern=1 3;strokeWidth=2;rounded=0;" edge="1" parent="1">
          <mxGeometry width="50" height="50" relative="1" as="geometry">
            <mxPoint x="110" y="400" as="sourcePoint" />
            <mxPoint x="880" y="400" as="targetPoint" />
          </mxGeometry>
        </mxCell>
        <mxCell id="CMEZGBUHvDBOm816A8C0-39" value="" style="edgeStyle=orthogonalEdgeStyle;rounded=0;orthogonalLoop=1;jettySize=auto;html=1;strokeWidth=2;" edge="1" parent="1" source="CMEZGBUHvDBOm816A8C0-40" target="CMEZGBUHvDBOm816A8C0-41">
          <mxGeometry relative="1" as="geometry" />
        </mxCell>
        <mxCell id="CMEZGBUHvDBOm816A8C0-40" value="&lt;h2 style=&quot;font-size: 20px;&quot;&gt;&lt;span style=&quot;font-weight: normal;&quot;&gt;开始&lt;/span&gt;&lt;/h2&gt;" style="rounded=1;whiteSpace=wrap;html=1;strokeWidth=2;" vertex="1" parent="1">
          <mxGeometry x="90" y="450" width="120" height="60" as="geometry" />
        </mxCell>
        <mxCell id="CMEZGBUHvDBOm816A8C0-42" value="" style="edgeStyle=orthogonalEdgeStyle;rounded=0;orthogonalLoop=1;jettySize=auto;html=1;" edge="1" parent="1" source="CMEZGBUHvDBOm816A8C0-41" target="CMEZGBUHvDBOm816A8C0-32">
          <mxGeometry relative="1" as="geometry" />
        </mxCell>
        <mxCell id="CMEZGBUHvDBOm816A8C0-41" value="&lt;h2 style=&quot;forced-color-adjust: none; color: rgb(0, 0, 0); font-family: Helvetica; font-style: normal; font-variant-ligatures: normal; font-variant-caps: normal; letter-spacing: normal; orphans: 2; text-align: center; text-indent: 0px; text-transform: none; widows: 2; word-spacing: 0px; -webkit-text-stroke-width: 0px; white-space: normal; background-color: rgb(251, 251, 251); text-decoration-thickness: initial; text-decoration-style: initial; text-decoration-color: initial; font-size: 20px;&quot;&gt;&lt;span style=&quot;forced-color-adjust: none; font-weight: normal;&quot;&gt;设置采集参数及初始化&lt;/span&gt;&lt;/h2&gt;" style="rounded=0;whiteSpace=wrap;html=1;strokeWidth=2;" vertex="1" parent="1">
          <mxGeometry x="250" y="450" width="230" height="60" as="geometry" />
        </mxCell>
        <mxCell id="CMEZGBUHvDBOm816A8C0-69" value="" style="edgeStyle=orthogonalEdgeStyle;rounded=0;orthogonalLoop=1;jettySize=auto;html=1;" edge="1" parent="1" source="CMEZGBUHvDBOm816A8C0-46" target="CMEZGBUHvDBOm816A8C0-68">
          <mxGeometry relative="1" as="geometry" />
        </mxCell>
        <mxCell id="CMEZGBUHvDBOm816A8C0-46" value="&lt;h2 style=&quot;font-size: 20px;&quot;&gt;&lt;span style=&quot;font-weight: 400;&quot;&gt;匹配IP.src&lt;/span&gt;&lt;/h2&gt;" style="whiteSpace=wrap;html=1;rounded=0;strokeWidth=2;" vertex="1" parent="1">
          <mxGeometry x="530" y="555" width="160" height="60" as="geometry" />
        </mxCell>
        <mxCell id="CMEZGBUHvDBOm816A8C0-51" value="" style="edgeStyle=orthogonalEdgeStyle;rounded=0;orthogonalLoop=1;jettySize=auto;html=1;exitX=0.5;exitY=1;exitDx=0;exitDy=0;entryX=0;entryY=0.5;entryDx=0;entryDy=0;" edge="1" parent="1" source="CMEZGBUHvDBOm816A8C0-49" target="CMEZGBUHvDBOm816A8C0-50">
          <mxGeometry relative="1" as="geometry" />
        </mxCell>
        <mxCell id="CMEZGBUHvDBOm816A8C0-83" value="" style="edgeStyle=orthogonalEdgeStyle;rounded=0;orthogonalLoop=1;jettySize=auto;html=1;entryX=0.5;entryY=1;entryDx=0;entryDy=0;" edge="1" parent="1" source="CMEZGBUHvDBOm816A8C0-49" target="CMEZGBUHvDBOm816A8C0-32">
          <mxGeometry relative="1" as="geometry">
            <Array as="points">
              <mxPoint x="150" y="530" />
              <mxPoint x="610" y="530" />
            </Array>
          </mxGeometry>
        </mxCell>
        <mxCell id="CMEZGBUHvDBOm816A8C0-49" value="&lt;h2 style=&quot;&quot;&gt;&lt;span style=&quot;font-size: 20px; font-weight: 400;&quot;&gt;到达分包条件&lt;/span&gt;&lt;/h2&gt;" style="rhombus;whiteSpace=wrap;html=1;rounded=0;strokeWidth=2;" vertex="1" parent="1">
          <mxGeometry x="50" y="545" width="200" height="80" as="geometry" />
        </mxCell>
        <mxCell id="CMEZGBUHvDBOm816A8C0-50" value="&lt;h2&gt;&lt;span style=&quot;font-size: 20px; font-weight: 400;&quot;&gt;释放文件安句柄&lt;/span&gt;&lt;/h2&gt;" style="whiteSpace=wrap;html=1;rounded=0;strokeWidth=2;" vertex="1" parent="1">
          <mxGeometry x="295" y="650" width="180" height="60" as="geometry" />
        </mxCell>
        <mxCell id="CMEZGBUHvDBOm816A8C0-59" value="&lt;h2 style=&quot;&quot;&gt;&lt;span style=&quot;font-size: 20px; font-weight: 400;&quot;&gt;开始录制&lt;/span&gt;&lt;/h2&gt;" style="rhombus;whiteSpace=wrap;html=1;rounded=0;strokeWidth=2;" vertex="1" parent="1">
          <mxGeometry x="730" y="440" width="200" height="80" as="geometry" />
        </mxCell>
        <mxCell id="CMEZGBUHvDBOm816A8C0-64" value="" style="edgeStyle=orthogonalEdgeStyle;rounded=0;orthogonalLoop=1;jettySize=auto;html=1;" edge="1" parent="1" source="CMEZGBUHvDBOm816A8C0-63" target="CMEZGBUHvDBOm816A8C0-46">
          <mxGeometry relative="1" as="geometry" />
        </mxCell>
        <mxCell id="CMEZGBUHvDBOm816A8C0-63" value="&lt;h2 style=&quot;font-size: 20px;&quot;&gt;&lt;span style=&quot;font-weight: normal;&quot;&gt;创建新的文件句柄&lt;/span&gt;&lt;/h2&gt;" style="rhombus;whiteSpace=wrap;html=1;rounded=0;strokeWidth=2;" vertex="1" parent="1">
          <mxGeometry x="723.75" y="545" width="212.5" height="80" as="geometry" />
        </mxCell>
        <mxCell id="CMEZGBUHvDBOm816A8C0-70" value="" style="edgeStyle=orthogonalEdgeStyle;rounded=0;orthogonalLoop=1;jettySize=auto;html=1;" edge="1" parent="1" source="CMEZGBUHvDBOm816A8C0-68" target="CMEZGBUHvDBOm816A8C0-49">
          <mxGeometry relative="1" as="geometry" />
        </mxCell>
        <mxCell id="CMEZGBUHvDBOm816A8C0-68" value="&lt;pre style=&quot;font-size: 20px;&quot;&gt;&lt;span style=&quot;font-weight: 400;&quot;&gt;写入对应激光雷达&lt;br&gt;&lt;/span&gt;&lt;span style=&quot;font-weight: 400;&quot;&gt;.pcap文件&lt;/span&gt;&lt;/pre&gt;" style="whiteSpace=wrap;html=1;rounded=0;strokeWidth=2;" vertex="1" parent="1">
          <mxGeometry x="290" y="557.5" width="190" height="55" as="geometry" />
        </mxCell>
        <mxCell id="CMEZGBUHvDBOm816A8C0-73" value="&lt;font style=&quot;font-size: 20px;&quot;&gt;Y&lt;/font&gt;" style="text;html=1;align=center;verticalAlign=middle;whiteSpace=wrap;rounded=0;" vertex="1" parent="1">
          <mxGeometry x="360" y="290" width="30" height="30" as="geometry" />
        </mxCell>
        <mxCell id="CMEZGBUHvDBOm816A8C0-77" value="&lt;font style=&quot;font-size: 20px;&quot;&gt;Y&lt;/font&gt;" style="text;html=1;align=center;verticalAlign=middle;whiteSpace=wrap;rounded=0;" vertex="1" parent="1">
          <mxGeometry x="790" y="515" width="30" height="30" as="geometry" />
        </mxCell>
        <mxCell id="CMEZGBUHvDBOm816A8C0-78" value="&lt;font style=&quot;font-size: 20px;&quot;&gt;Y&lt;/font&gt;" style="text;html=1;align=center;verticalAlign=middle;whiteSpace=wrap;rounded=0;" vertex="1" parent="1">
          <mxGeometry x="700" y="557.5" width="30" height="30" as="geometry" />
        </mxCell>
        <mxCell id="CMEZGBUHvDBOm816A8C0-79" value="&lt;font style=&quot;font-size: 20px;&quot;&gt;Y&lt;/font&gt;" style="text;html=1;align=center;verticalAlign=middle;whiteSpace=wrap;rounded=0;" vertex="1" parent="1">
          <mxGeometry x="120" y="625" width="30" height="30" as="geometry" />
        </mxCell>
        <mxCell id="CMEZGBUHvDBOm816A8C0-80" value="&lt;font style=&quot;font-size: 20px;&quot;&gt;N&lt;/font&gt;" style="text;html=1;align=center;verticalAlign=middle;whiteSpace=wrap;rounded=0;" vertex="1" parent="1">
          <mxGeometry x="360" y="160" width="30" height="30" as="geometry" />
        </mxCell>
        <mxCell id="CMEZGBUHvDBOm816A8C0-81" value="&lt;font style=&quot;font-size: 20px;&quot;&gt;N&lt;/font&gt;" style="text;html=1;align=center;verticalAlign=middle;whiteSpace=wrap;rounded=0;" vertex="1" parent="1">
          <mxGeometry x="120" y="520" width="30" height="30" as="geometry" />
        </mxCell>
        <mxCell id="CMEZGBUHvDBOm816A8C0-84" value="&lt;font style=&quot;font-size: 20px;&quot;&gt;Logger&lt;/font&gt;" style="text;html=1;align=center;verticalAlign=middle;whiteSpace=wrap;rounded=0;" vertex="1" parent="1">
          <mxGeometry x="40" y="410" width="30" height="30" as="geometry" />
        </mxCell>
        <mxCell id="CMEZGBUHvDBOm816A8C0-85" value="&lt;font style=&quot;font-size: 20px;&quot;&gt;Loader&lt;/font&gt;" style="text;html=1;align=center;verticalAlign=middle;whiteSpace=wrap;rounded=0;" vertex="1" parent="1">
          <mxGeometry x="40" y="50" width="30" height="30" as="geometry" />
        </mxCell>
        <mxCell id="CMEZGBUHvDBOm816A8C0-89" value="" style="edgeStyle=orthogonalEdgeStyle;rounded=0;orthogonalLoop=1;jettySize=auto;html=1;" edge="1" parent="1" source="CMEZGBUHvDBOm816A8C0-87" target="CMEZGBUHvDBOm816A8C0-88">
          <mxGeometry relative="1" as="geometry">
            <Array as="points">
              <mxPoint x="1282.4" y="140" />
              <mxPoint x="1182.4" y="140" />
            </Array>
          </mxGeometry>
        </mxCell>
        <mxCell id="CMEZGBUHvDBOm816A8C0-95" value="" style="edgeStyle=orthogonalEdgeStyle;rounded=0;orthogonalLoop=1;jettySize=auto;html=1;entryX=0.5;entryY=0;entryDx=0;entryDy=0;exitX=0.5;exitY=1;exitDx=0;exitDy=0;" edge="1" parent="1" source="CMEZGBUHvDBOm816A8C0-87" target="CMEZGBUHvDBOm816A8C0-96">
          <mxGeometry relative="1" as="geometry">
            <mxPoint x="1257.4" y="200" as="sourcePoint" />
            <mxPoint x="1497.4" y="100" as="targetPoint" />
            <Array as="points">
              <mxPoint x="1282.4" y="140" />
              <mxPoint x="1412.4" y="140" />
            </Array>
          </mxGeometry>
        </mxCell>
        <mxCell id="CMEZGBUHvDBOm816A8C0-87" value="&lt;h2 style=&quot;font-size: 20px;&quot;&gt;&lt;span style=&quot;font-weight: normal;&quot;&gt;开始&lt;/span&gt;&lt;/h2&gt;" style="rounded=1;whiteSpace=wrap;html=1;strokeWidth=2;" vertex="1" parent="1">
          <mxGeometry x="1222.4" y="60" width="120" height="60" as="geometry" />
        </mxCell>
        <mxCell id="CMEZGBUHvDBOm816A8C0-91" value="" style="edgeStyle=orthogonalEdgeStyle;rounded=0;orthogonalLoop=1;jettySize=auto;html=1;" edge="1" parent="1" source="CMEZGBUHvDBOm816A8C0-88" target="CMEZGBUHvDBOm816A8C0-90">
          <mxGeometry relative="1" as="geometry" />
        </mxCell>
        <mxCell id="CMEZGBUHvDBOm816A8C0-88" value="&lt;pre style=&quot;&quot;&gt;&lt;span style=&quot;font-size: 20px; font-weight: 400;&quot;&gt;获取配置参数&lt;/span&gt;&lt;/pre&gt;" style="whiteSpace=wrap;html=1;rounded=0;strokeWidth=2;" vertex="1" parent="1">
          <mxGeometry x="1107.4" y="170" width="150" height="60" as="geometry" />
        </mxCell>
        <mxCell id="CMEZGBUHvDBOm816A8C0-93" value="" style="edgeStyle=orthogonalEdgeStyle;rounded=0;orthogonalLoop=1;jettySize=auto;html=1;" edge="1" parent="1" source="CMEZGBUHvDBOm816A8C0-90" target="CMEZGBUHvDBOm816A8C0-92">
          <mxGeometry relative="1" as="geometry" />
        </mxCell>
        <mxCell id="CMEZGBUHvDBOm816A8C0-90" value="&lt;pre style=&quot;&quot;&gt;&lt;span style=&quot;font-size: 20px;&quot;&gt;打开网络设备&lt;/span&gt;&lt;br&gt;&lt;/pre&gt;" style="whiteSpace=wrap;html=1;rounded=0;strokeWidth=2;" vertex="1" parent="1">
          <mxGeometry x="1107.4" y="260" width="150" height="60" as="geometry" />
        </mxCell>
        <mxCell id="CMEZGBUHvDBOm816A8C0-98" value="" style="edgeStyle=orthogonalEdgeStyle;rounded=0;orthogonalLoop=1;jettySize=auto;html=1;" edge="1" parent="1" source="CMEZGBUHvDBOm816A8C0-92" target="CMEZGBUHvDBOm816A8C0-97">
          <mxGeometry relative="1" as="geometry" />
        </mxCell>
        <mxCell id="CMEZGBUHvDBOm816A8C0-92" value="&lt;pre style=&quot;&quot;&gt;&lt;span style=&quot;font-size: 20px;&quot;&gt;获取网络参数&lt;/span&gt;&lt;br&gt;&lt;/pre&gt;" style="whiteSpace=wrap;html=1;rounded=0;strokeWidth=2;" vertex="1" parent="1">
          <mxGeometry x="1107.4" y="350" width="150" height="60" as="geometry" />
        </mxCell>
        <mxCell id="CMEZGBUHvDBOm816A8C0-109" value="" style="edgeStyle=orthogonalEdgeStyle;rounded=0;orthogonalLoop=1;jettySize=auto;html=1;" edge="1" parent="1" source="CMEZGBUHvDBOm816A8C0-96" target="CMEZGBUHvDBOm816A8C0-108">
          <mxGeometry relative="1" as="geometry" />
        </mxCell>
        <mxCell id="CMEZGBUHvDBOm816A8C0-96" value="&lt;pre&gt;&lt;span style=&quot;font-size: 20px;&quot;&gt;初始化管道&lt;/span&gt;&lt;/pre&gt;" style="whiteSpace=wrap;html=1;rounded=0;strokeWidth=2;" vertex="1" parent="1">
          <mxGeometry x="1337.4" y="170" width="150" height="60" as="geometry" />
        </mxCell>
        <mxCell id="CMEZGBUHvDBOm816A8C0-100" value="" style="edgeStyle=orthogonalEdgeStyle;rounded=0;orthogonalLoop=1;jettySize=auto;html=1;" edge="1" parent="1" source="CMEZGBUHvDBOm816A8C0-97" target="CMEZGBUHvDBOm816A8C0-99">
          <mxGeometry relative="1" as="geometry" />
        </mxCell>
        <mxCell id="CMEZGBUHvDBOm816A8C0-97" value="&lt;pre style=&quot;&quot;&gt;&lt;span style=&quot;font-size: 20px;&quot;&gt;设置过滤器&lt;/span&gt;&lt;br&gt;&lt;/pre&gt;" style="whiteSpace=wrap;html=1;rounded=0;strokeWidth=2;" vertex="1" parent="1">
          <mxGeometry x="1107.4" y="440" width="150" height="60" as="geometry" />
        </mxCell>
        <mxCell id="CMEZGBUHvDBOm816A8C0-116" value="" style="edgeStyle=orthogonalEdgeStyle;rounded=0;orthogonalLoop=1;jettySize=auto;html=1;entryX=0;entryY=0.5;entryDx=0;entryDy=0;dashed=1;exitX=0.5;exitY=1;exitDx=0;exitDy=0;" edge="1" parent="1" source="CMEZGBUHvDBOm816A8C0-117" target="CMEZGBUHvDBOm816A8C0-108">
          <mxGeometry relative="1" as="geometry">
            <mxPoint x="1372.4" y="560" as="targetPoint" />
            <Array as="points">
              <mxPoint x="1182.4" y="730" />
              <mxPoint x="1316.4" y="730" />
              <mxPoint x="1316.4" y="290" />
            </Array>
          </mxGeometry>
        </mxCell>
        <mxCell id="CMEZGBUHvDBOm816A8C0-118" value="" style="edgeStyle=orthogonalEdgeStyle;rounded=0;orthogonalLoop=1;jettySize=auto;html=1;" edge="1" parent="1" source="CMEZGBUHvDBOm816A8C0-99" target="CMEZGBUHvDBOm816A8C0-117">
          <mxGeometry relative="1" as="geometry" />
        </mxCell>
        <mxCell id="CMEZGBUHvDBOm816A8C0-99" value="&lt;pre style=&quot;&quot;&gt;&lt;span style=&quot;font-size: 20px;&quot;&gt;捕获数据包&lt;/span&gt;&lt;br&gt;&lt;/pre&gt;" style="whiteSpace=wrap;html=1;rounded=0;strokeWidth=2;" vertex="1" parent="1">
          <mxGeometry x="1107.4" y="530" width="150" height="60" as="geometry" />
        </mxCell>
        <mxCell id="CMEZGBUHvDBOm816A8C0-122" value="" style="edgeStyle=orthogonalEdgeStyle;rounded=0;orthogonalLoop=1;jettySize=auto;html=1;" edge="1" parent="1" source="CMEZGBUHvDBOm816A8C0-108" target="CMEZGBUHvDBOm816A8C0-121">
          <mxGeometry relative="1" as="geometry" />
        </mxCell>
        <mxCell id="CMEZGBUHvDBOm816A8C0-108" value="&lt;pre&gt;&lt;span style=&quot;font-size: 20px;&quot;&gt;等待数据包&lt;/span&gt;&lt;/pre&gt;" style="whiteSpace=wrap;html=1;rounded=0;strokeWidth=2;" vertex="1" parent="1">
          <mxGeometry x="1337.4" y="260" width="150" height="60" as="geometry" />
        </mxCell>
        <mxCell id="CMEZGBUHvDBOm816A8C0-114" value="&lt;font style=&quot;font-size: 20px;&quot;&gt;N&lt;/font&gt;" style="text;html=1;align=center;verticalAlign=middle;whiteSpace=wrap;rounded=0;" vertex="1" parent="1">
          <mxGeometry x="1010" y="865" width="30" height="30" as="geometry" />
        </mxCell>
        <mxCell id="CMEZGBUHvDBOm816A8C0-120" value="" style="edgeStyle=orthogonalEdgeStyle;rounded=0;orthogonalLoop=1;jettySize=auto;html=1;entryX=0;entryY=0.5;entryDx=0;entryDy=0;exitX=0;exitY=0.5;exitDx=0;exitDy=0;" edge="1" parent="1" source="CMEZGBUHvDBOm816A8C0-117" target="CMEZGBUHvDBOm816A8C0-99">
          <mxGeometry relative="1" as="geometry">
            <mxPoint x="989.9" y="660" as="targetPoint" />
          </mxGeometry>
        </mxCell>
        <mxCell id="CMEZGBUHvDBOm816A8C0-117" value="&lt;h2 style=&quot;&quot;&gt;&lt;span style=&quot;font-size: 20px; font-weight: 400;&quot;&gt;size==BATCH_SIZE&lt;/span&gt;&lt;/h2&gt;" style="rhombus;whiteSpace=wrap;html=1;rounded=0;strokeWidth=2;" vertex="1" parent="1">
          <mxGeometry x="1069.9" y="620" width="225" height="80" as="geometry" />
        </mxCell>
        <mxCell id="CMEZGBUHvDBOm816A8C0-124" value="" style="edgeStyle=orthogonalEdgeStyle;rounded=0;orthogonalLoop=1;jettySize=auto;html=1;" edge="1" parent="1" source="CMEZGBUHvDBOm816A8C0-121" target="CMEZGBUHvDBOm816A8C0-123">
          <mxGeometry relative="1" as="geometry" />
        </mxCell>
        <mxCell id="CMEZGBUHvDBOm816A8C0-121" value="&lt;span style=&quot;font-size: 20px;&quot;&gt;数据封装&lt;/span&gt;" style="whiteSpace=wrap;html=1;rounded=0;strokeWidth=2;" vertex="1" parent="1">
          <mxGeometry x="1337.4" y="350" width="150" height="60" as="geometry" />
        </mxCell>
        <mxCell id="CMEZGBUHvDBOm816A8C0-123" value="&lt;span style=&quot;font-size: 20px;&quot;&gt;数据写入管道&lt;/span&gt;" style="whiteSpace=wrap;html=1;rounded=0;strokeWidth=2;" vertex="1" parent="1">
          <mxGeometry x="1337.4" y="440" width="150" height="60" as="geometry" />
        </mxCell>
        <mxCell id="CMEZGBUHvDBOm816A8C0-148" value="" style="edgeStyle=orthogonalEdgeStyle;rounded=0;orthogonalLoop=1;jettySize=auto;html=1;" edge="1" parent="1" source="CMEZGBUHvDBOm816A8C0-127" target="CMEZGBUHvDBOm816A8C0-129">
          <mxGeometry relative="1" as="geometry" />
        </mxCell>
        <mxCell id="CMEZGBUHvDBOm816A8C0-127" value="&lt;h2 style=&quot;font-size: 20px;&quot;&gt;&lt;span style=&quot;font-weight: normal;&quot;&gt;开始&lt;/span&gt;&lt;/h2&gt;" style="rounded=1;whiteSpace=wrap;html=1;strokeWidth=2;" vertex="1" parent="1">
          <mxGeometry x="20" y="960" width="120" height="60" as="geometry" />
        </mxCell>
        <mxCell id="CMEZGBUHvDBOm816A8C0-128" value="" style="edgeStyle=orthogonalEdgeStyle;rounded=0;orthogonalLoop=1;jettySize=auto;html=1;" edge="1" parent="1" source="CMEZGBUHvDBOm816A8C0-129" target="CMEZGBUHvDBOm816A8C0-149">
          <mxGeometry relative="1" as="geometry">
            <mxPoint x="350" y="990.0476190476188" as="targetPoint" />
          </mxGeometry>
        </mxCell>
        <mxCell id="CMEZGBUHvDBOm816A8C0-129" value="&lt;pre style=&quot;&quot;&gt;&lt;span style=&quot;font-size: 20px;&quot;&gt;初始化FIFO&lt;/span&gt;&lt;/pre&gt;" style="whiteSpace=wrap;html=1;rounded=0;strokeWidth=2;" vertex="1" parent="1">
          <mxGeometry x="5" y="1050" width="150" height="60" as="geometry" />
        </mxCell>
        <mxCell id="CMEZGBUHvDBOm816A8C0-130" value="" style="edgeStyle=orthogonalEdgeStyle;rounded=0;orthogonalLoop=1;jettySize=auto;html=1;exitX=0.5;exitY=1;exitDx=0;exitDy=0;" edge="1" parent="1" source="CMEZGBUHvDBOm816A8C0-149" target="CMEZGBUHvDBOm816A8C0-133">
          <mxGeometry relative="1" as="geometry">
            <mxPoint x="500" y="990.0476190476188" as="sourcePoint" />
          </mxGeometry>
        </mxCell>
        <mxCell id="CMEZGBUHvDBOm816A8C0-132" value="" style="edgeStyle=orthogonalEdgeStyle;rounded=0;orthogonalLoop=1;jettySize=auto;html=1;" edge="1" parent="1" source="CMEZGBUHvDBOm816A8C0-161" target="CMEZGBUHvDBOm816A8C0-137">
          <mxGeometry relative="1" as="geometry" />
        </mxCell>
        <mxCell id="CMEZGBUHvDBOm816A8C0-133" value="&lt;pre style=&quot;&quot;&gt;&lt;span style=&quot;font-size: 20px;&quot;&gt;从FIFO获取数据&lt;/span&gt;&lt;br&gt;&lt;/pre&gt;" style="whiteSpace=wrap;html=1;rounded=0;strokeWidth=2;" vertex="1" parent="1">
          <mxGeometry x="-5" y="1250" width="170" height="60" as="geometry" />
        </mxCell>
        <mxCell id="CMEZGBUHvDBOm816A8C0-136" value="" style="edgeStyle=orthogonalEdgeStyle;rounded=0;orthogonalLoop=1;jettySize=auto;html=1;" edge="1" parent="1" source="CMEZGBUHvDBOm816A8C0-137" target="CMEZGBUHvDBOm816A8C0-140">
          <mxGeometry relative="1" as="geometry" />
        </mxCell>
        <mxCell id="CMEZGBUHvDBOm816A8C0-137" value="&lt;pre style=&quot;&quot;&gt;&lt;span style=&quot;font-size: 20px;&quot;&gt;IP识别和数据分流&lt;br/&gt;&lt;/span&gt;&lt;br/&gt;&lt;/pre&gt;" style="whiteSpace=wrap;html=1;rounded=0;strokeWidth=2;" vertex="1" parent="1">
          <mxGeometry x="215" y="1150" width="190" height="60" as="geometry" />
        </mxCell>
        <mxCell id="CMEZGBUHvDBOm816A8C0-139" value="" style="edgeStyle=orthogonalEdgeStyle;rounded=0;orthogonalLoop=1;jettySize=auto;html=1;entryX=0.5;entryY=1;entryDx=0;entryDy=0;exitX=0.5;exitY=1;exitDx=0;exitDy=0;" edge="1" parent="1" source="CMEZGBUHvDBOm816A8C0-165" target="CMEZGBUHvDBOm816A8C0-133">
          <mxGeometry relative="1" as="geometry">
            <Array as="points">
              <mxPoint x="520" y="935" />
              <mxPoint x="520" y="1350" />
              <mxPoint x="80" y="1350" />
            </Array>
          </mxGeometry>
        </mxCell>
        <mxCell id="CMEZGBUHvDBOm816A8C0-154" value="" style="edgeStyle=orthogonalEdgeStyle;rounded=0;orthogonalLoop=1;jettySize=auto;html=1;" edge="1" parent="1" source="CMEZGBUHvDBOm816A8C0-140" target="CMEZGBUHvDBOm816A8C0-144">
          <mxGeometry relative="1" as="geometry" />
        </mxCell>
        <mxCell id="CMEZGBUHvDBOm816A8C0-140" value="&lt;pre style=&quot;&quot;&gt;&lt;span style=&quot;font-size: 20px;&quot;&gt;数据落盘&lt;/span&gt;&lt;br&gt;&lt;/pre&gt;" style="whiteSpace=wrap;html=1;rounded=0;strokeWidth=2;" vertex="1" parent="1">
          <mxGeometry x="235" y="1050" width="150" height="60" as="geometry" />
        </mxCell>
        <mxCell id="CMEZGBUHvDBOm816A8C0-166" value="" style="edgeStyle=orthogonalEdgeStyle;rounded=0;orthogonalLoop=1;jettySize=auto;html=1;exitX=0.5;exitY=0;exitDx=0;exitDy=0;" edge="1" parent="1" source="CMEZGBUHvDBOm816A8C0-144" target="CMEZGBUHvDBOm816A8C0-165">
          <mxGeometry relative="1" as="geometry">
            <mxPoint x="444" y="900.0000000000002" as="sourcePoint" />
            <Array as="points">
              <mxPoint x="310" y="900" />
            </Array>
          </mxGeometry>
        </mxCell>
        <mxCell id="CMEZGBUHvDBOm816A8C0-169" value="" style="edgeStyle=orthogonalEdgeStyle;rounded=0;orthogonalLoop=1;jettySize=auto;html=1;entryX=1;entryY=0.5;entryDx=0;entryDy=0;" edge="1" parent="1" source="CMEZGBUHvDBOm816A8C0-144" target="CMEZGBUHvDBOm816A8C0-161">
          <mxGeometry relative="1" as="geometry">
            <Array as="points">
              <mxPoint x="460" y="975" />
              <mxPoint x="460" y="1280" />
            </Array>
          </mxGeometry>
        </mxCell>
        <mxCell id="CMEZGBUHvDBOm816A8C0-144" value="&lt;h2 style=&quot;&quot;&gt;&lt;span style=&quot;font-size: 20px; font-weight: 400;&quot;&gt;size==pktcount&lt;/span&gt;&lt;br&gt;&lt;/h2&gt;" style="rhombus;whiteSpace=wrap;html=1;rounded=0;strokeWidth=2;" vertex="1" parent="1">
          <mxGeometry x="176.25" y="940" width="267.5" height="70" as="geometry" />
        </mxCell>
        <mxCell id="CMEZGBUHvDBOm816A8C0-149" value="&lt;h2 style=&quot;&quot;&gt;&lt;span style=&quot;font-size: 20px; font-weight: 400;&quot;&gt;检查FIFO队列&lt;/span&gt;&lt;/h2&gt;" style="rhombus;whiteSpace=wrap;html=1;rounded=0;strokeWidth=2;" vertex="1" parent="1">
          <mxGeometry x="-20" y="1140" width="200" height="80" as="geometry" />
        </mxCell>
        <mxCell id="CMEZGBUHvDBOm816A8C0-153" value="&lt;font style=&quot;font-size: 20px;&quot;&gt;非空&lt;/font&gt;" style="text;html=1;align=center;verticalAlign=middle;whiteSpace=wrap;rounded=0;" vertex="1" parent="1">
          <mxGeometry x="20" y="1220" width="51.23" height="30" as="geometry" />
        </mxCell>
        <mxCell id="CMEZGBUHvDBOm816A8C0-156" value="&lt;font style=&quot;font-size: 20px;&quot;&gt;否&lt;/font&gt;" style="text;html=1;align=center;verticalAlign=middle;whiteSpace=wrap;rounded=0;" vertex="1" parent="1">
          <mxGeometry x="520" y="945" width="30" height="30" as="geometry" />
        </mxCell>
        <mxCell id="CMEZGBUHvDBOm816A8C0-159" value="&lt;h2 style=&quot;font-size: 20px;&quot;&gt;&lt;span style=&quot;font-weight: normal;&quot;&gt;结束&lt;/span&gt;&lt;/h2&gt;" style="rounded=1;whiteSpace=wrap;html=1;strokeWidth=2;" vertex="1" parent="1">
          <mxGeometry x="560" y="1050" width="120" height="60" as="geometry" />
        </mxCell>
        <mxCell id="CMEZGBUHvDBOm816A8C0-160" value="&lt;font style=&quot;font-size: 20px;&quot;&gt;是&lt;/font&gt;" style="text;html=1;align=center;verticalAlign=middle;whiteSpace=wrap;rounded=0;" vertex="1" parent="1">
          <mxGeometry x="280" y="905" width="30" height="30" as="geometry" />
        </mxCell>
        <mxCell id="CMEZGBUHvDBOm816A8C0-162" value="" style="edgeStyle=orthogonalEdgeStyle;rounded=0;orthogonalLoop=1;jettySize=auto;html=1;" edge="1" parent="1" source="CMEZGBUHvDBOm816A8C0-133" target="CMEZGBUHvDBOm816A8C0-161">
          <mxGeometry relative="1" as="geometry">
            <mxPoint x="165" y="1280" as="sourcePoint" />
            <mxPoint x="539" y="1280" as="targetPoint" />
          </mxGeometry>
        </mxCell>
        <mxCell id="CMEZGBUHvDBOm816A8C0-161" value="&lt;span style=&quot;font-size: 20px;&quot;&gt;取出数据包&lt;/span&gt;" style="whiteSpace=wrap;html=1;rounded=0;strokeWidth=2;" vertex="1" parent="1">
          <mxGeometry x="230" y="1250" width="160" height="60" as="geometry" />
        </mxCell>
        <mxCell id="CMEZGBUHvDBOm816A8C0-167" value="" style="edgeStyle=orthogonalEdgeStyle;rounded=0;orthogonalLoop=1;jettySize=auto;html=1;exitX=1;exitY=0.5;exitDx=0;exitDy=0;entryX=0.5;entryY=0;entryDx=0;entryDy=0;" edge="1" parent="1" source="CMEZGBUHvDBOm816A8C0-165" target="CMEZGBUHvDBOm816A8C0-159">
          <mxGeometry relative="1" as="geometry">
            <mxPoint x="610" y="900" as="sourcePoint" />
            <Array as="points">
              <mxPoint x="620" y="900" />
              <mxPoint x="620" y="990" />
            </Array>
          </mxGeometry>
        </mxCell>
        <mxCell id="CMEZGBUHvDBOm816A8C0-165" value="&lt;h2 style=&quot;&quot;&gt;&lt;span style=&quot;font-size: 20px; font-weight: 400;&quot;&gt;采集结束&lt;/span&gt;&lt;br&gt;&lt;/h2&gt;" style="rhombus;whiteSpace=wrap;html=1;rounded=0;strokeWidth=2;" vertex="1" parent="1">
          <mxGeometry x="443.75" y="865" width="156.25" height="70" as="geometry" />
        </mxCell>
        <mxCell id="CMEZGBUHvDBOm816A8C0-168" value="&lt;font style=&quot;font-size: 20px;&quot;&gt;是&lt;/font&gt;" style="text;html=1;align=center;verticalAlign=middle;whiteSpace=wrap;rounded=0;" vertex="1" parent="1">
          <mxGeometry x="620" y="915" width="30" height="30" as="geometry" />
        </mxCell>
        <mxCell id="CMEZGBUHvDBOm816A8C0-170" value="&lt;font style=&quot;font-size: 20px;&quot;&gt;否&lt;/font&gt;" style="text;html=1;align=center;verticalAlign=middle;whiteSpace=wrap;rounded=0;" vertex="1" parent="1">
          <mxGeometry x="460" y="975" width="30" height="30" as="geometry" />
        </mxCell>
      </root>
    </mxGraphModel>
  </diagram>
</mxfile>
